<?xml version="1.0" encoding="UTF-8"?>
<svg width="32" height="32" viewBox="0 0 32 32" fill="none" xmlns="http://www.w3.org/2000/svg">
  <rect width="32" height="32" rx="6" fill="#4F46E5"/>
  <path d="M8 12H24V24C24 25.1046 23.1046 26 22 26H10C8.89543 26 8 25.1046 8 24V12Z" fill="white" fill-opacity="0.2"/>
  <path d="M24 12V10C24 8.89543 23.1046 8 22 8H18V12H24Z" fill="white" fill-opacity="0.2"/>
  <path d="M14 8H10C8.89543 8 8 8.89543 8 10V12H14V8Z" fill="white" fill-opacity="0.2"/>
  <path d="M24 15H8V17H24V15Z" fill="white"/>
  <path d="M24 19H8V21H24V19Z" fill="white"/>
  <path d="M16 8V12H14V8H16Z" fill="white"/>
  <path d="M19 12H17V16H19V12Z" fill="#4F46E5"/>
  <path d="M15 12H13V14H15V12Z" fill="#4F46E5"/>
</svg>
